<?xml version="1.0" encoding="UTF-8" standalone="no"?>
<!-- Created with Inkscape (http://www.inkscape.org/) -->

<svg
   xmlns:dc="http://purl.org/dc/elements/1.1/"
   xmlns:cc="http://creativecommons.org/ns#"
   xmlns:rdf="http://www.w3.org/1999/02/22-rdf-syntax-ns#"
   xmlns:svg="http://www.w3.org/2000/svg"
   xmlns="http://www.w3.org/2000/svg"
   xmlns:sodipodi="http://sodipodi.sourceforge.net/DTD/sodipodi-0.dtd"
   xmlns:inkscape="http://www.inkscape.org/namespaces/inkscape"
   width="60.327492mm"
   height="48.489616mm"
   viewBox="0 0 213.75883 171.81357"
   id="svg2"
   version="1.1"
   inkscape:version="0.92.3 (2405546, 2018-03-11)"
   sodipodi:docname="logo.svg">
  <defs
     id="defs4">
    <marker
       inkscape:isstock="true"
       style="overflow:visible"
       id="marker5684"
       refX="0"
       refY="0"
       orient="auto"
       inkscape:stockid="TriangleOutM">
      <path
         transform="scale(0.4)"
         style="fill:#000000;fill-opacity:1;fill-rule:evenodd;stroke:#000000;stroke-width:1.00000003pt;stroke-opacity:1"
         d="M 5.77,0 -2.88,5 V -5 Z"
         id="path5686"
         inkscape:connector-curvature="0" />
    </marker>
    <marker
       inkscape:stockid="TriangleOutM"
       orient="auto"
       refY="0"
       refX="0"
       id="marker5602"
       style="overflow:visible"
       inkscape:isstock="true">
      <path
         id="path5604"
         d="M 5.77,0 -2.88,5 V -5 Z"
         style="fill:#000000;fill-opacity:1;fill-rule:evenodd;stroke:#000000;stroke-width:1.00000003pt;stroke-opacity:1"
         transform="scale(0.4)"
         inkscape:connector-curvature="0" />
    </marker>
    <marker
       inkscape:stockid="TriangleOutM"
       orient="auto"
       refY="0"
       refX="0"
       id="marker5040"
       style="overflow:visible"
       inkscape:isstock="true">
      <path
         id="path5042"
         d="M 5.77,0 -2.88,5 V -5 Z"
         style="fill:#000000;fill-opacity:1;fill-rule:evenodd;stroke:#000000;stroke-width:1.00000003pt;stroke-opacity:1"
         transform="scale(0.4)"
         inkscape:connector-curvature="0" />
    </marker>
    <marker
       inkscape:isstock="true"
       style="overflow:visible"
       id="marker4926"
       refX="0"
       refY="0"
       orient="auto"
       inkscape:stockid="TriangleOutM"
       inkscape:collect="always">
      <path
         transform="scale(0.4)"
         style="fill:#000000;fill-opacity:1;fill-rule:evenodd;stroke:#000000;stroke-width:1.00000003pt;stroke-opacity:1"
         d="M 5.77,0 -2.88,5 V -5 Z"
         id="path4928"
         inkscape:connector-curvature="0" />
    </marker>
    <marker
       inkscape:stockid="TriangleOutM"
       orient="auto"
       refY="0"
       refX="0"
       id="TriangleOutM"
       style="overflow:visible"
       inkscape:isstock="true"
       inkscape:collect="always">
      <path
         id="path4354"
         d="M 5.77,0 -2.88,5 V -5 Z"
         style="fill:#000000;fill-opacity:1;fill-rule:evenodd;stroke:#000000;stroke-width:1.00000003pt;stroke-opacity:1"
         transform="scale(0.4)"
         inkscape:connector-curvature="0" />
    </marker>
    <marker
       inkscape:stockid="EmptyTriangleOutS"
       orient="auto"
       refY="0"
       refX="0"
       id="EmptyTriangleOutS"
       style="overflow:visible"
       inkscape:isstock="true">
      <path
         id="path4375"
         d="M 5.77,0 -2.88,5 V -5 Z"
         style="fill:#ffffff;fill-rule:evenodd;stroke:#000000;stroke-width:1.00000003pt;stroke-opacity:1"
         transform="matrix(0.2,0,0,0.2,-0.6,0)"
         inkscape:connector-curvature="0" />
    </marker>
    <marker
       inkscape:stockid="DiamondSend"
       orient="auto"
       refY="0"
       refX="0"
       id="DiamondSend"
       style="overflow:visible"
       inkscape:isstock="true">
      <path
         id="path4586"
         d="M 0,-7.0710768 -7.0710894,0 0,7.0710589 7.0710462,0 Z"
         style="fill:#000000;fill-opacity:1;fill-rule:evenodd;stroke:#000000;stroke-width:1.00000003pt;stroke-opacity:1"
         transform="matrix(0.2,0,0,0.2,-1.2,0)"
         inkscape:connector-curvature="0" />
    </marker>
    <marker
       inkscape:stockid="Arrow2Mend"
       orient="auto"
       refY="0"
       refX="0"
       id="marker4545"
       style="overflow:visible"
       inkscape:isstock="true">
      <path
         id="path4547"
         style="fill:#000000;fill-opacity:1;fill-rule:evenodd;stroke:#000000;stroke-width:0.625;stroke-linejoin:round;stroke-opacity:1"
         d="M 8.7185878,4.0337352 -2.2072895,0.01601326 8.7185884,-4.0017078 c -1.7454984,2.3720609 -1.7354408,5.6174519 -6e-7,8.035443 z"
         transform="scale(-0.6)"
         inkscape:connector-curvature="0" />
    </marker>
    <marker
       inkscape:stockid="Arrow1Send"
       orient="auto"
       refY="0"
       refX="0"
       id="marker4511"
       style="overflow:visible"
       inkscape:isstock="true">
      <path
         id="path4513"
         d="M 0,0 5,-5 -12.5,0 5,5 Z"
         style="fill:#000000;fill-opacity:1;fill-rule:evenodd;stroke:#000000;stroke-width:1.00000003pt;stroke-opacity:1"
         transform="matrix(-0.2,0,0,-0.2,-1.2,0)"
         inkscape:connector-curvature="0" />
    </marker>
    <marker
       inkscape:stockid="Arrow1Send"
       orient="auto"
       refY="0"
       refX="0"
       id="Arrow1Send"
       style="overflow:visible"
       inkscape:isstock="true">
      <path
         id="path4224"
         d="M 0,0 5,-5 -12.5,0 5,5 Z"
         style="fill:#000000;fill-opacity:1;fill-rule:evenodd;stroke:#000000;stroke-width:1.00000003pt;stroke-opacity:1"
         transform="matrix(-0.2,0,0,-0.2,-1.2,0)"
         inkscape:connector-curvature="0" />
    </marker>
    <marker
       inkscape:stockid="Arrow2Mend"
       orient="auto"
       refY="0"
       refX="0"
       id="Arrow2Mend"
       style="overflow:visible"
       inkscape:isstock="true">
      <path
         id="path4236"
         style="fill:#000000;fill-opacity:1;fill-rule:evenodd;stroke:#000000;stroke-width:0.625;stroke-linejoin:round;stroke-opacity:1"
         d="M 8.7185878,4.0337352 -2.2072895,0.01601326 8.7185884,-4.0017078 c -1.7454984,2.3720609 -1.7354408,5.6174519 -6e-7,8.035443 z"
         transform="scale(-0.6)"
         inkscape:connector-curvature="0" />
    </marker>
  </defs>
  <sodipodi:namedview
     id="base"
     pagecolor="#ffffff"
     bordercolor="#666666"
     borderopacity="1.0"
     inkscape:pageopacity="0.0"
     inkscape:pageshadow="2"
     inkscape:zoom="1.4"
     inkscape:cx="-22.87309"
     inkscape:cy="96.448846"
     inkscape:document-units="px"
     inkscape:current-layer="layer1"
     showgrid="false"
     showguides="false"
     inkscape:guide-bbox="true"
     inkscape:snap-grids="false"
     inkscape:window-width="1341"
     inkscape:window-height="740"
     inkscape:window-x="25"
     inkscape:window-y="0"
     inkscape:window-maximized="1"
     fit-margin-top="0"
     fit-margin-left="0"
     fit-margin-right="0"
     fit-margin-bottom="0" />
  <metadata
     id="metadata7">
    <rdf:RDF>
      <cc:Work
         rdf:about="">
        <dc:format>image/svg+xml</dc:format>
        <dc:type
           rdf:resource="http://purl.org/dc/dcmitype/StillImage" />
        <dc:title></dc:title>
      </cc:Work>
    </rdf:RDF>
  </metadata>
  <g
     inkscape:label="Layer 1"
     inkscape:groupmode="layer"
     id="layer1"
     transform="translate(-245.75821,-585.59205)">
    <g
       id="g6868"
       transform="translate(55.285317)">
      <path
         inkscape:connector-curvature="0"
         d="m 357.42857,589.59205 h -16 l -4,-4 h -12 c -2.21,0 -3.98,1.79 -3.98,4 l -0.02,24 c 0,2.21 1.79,4 4,4 h 32 c 2.21,0 4,-1.79 4,-4 v -20 c 0,-2.21 -1.79,-4 -4,-4 z m 0,24 h -32 v -20 h 32 z"
         id="path4149" />
      <path
         id="path4158"
         d="m 289.28092,660.78038 v -33.60295 c 0,-3.09425 -2.50623,-5.60048 -5.60048,-5.60048 h -33.60295 c -3.09428,0 -5.60047,2.50623 -5.60047,5.60048 v 33.60295 c 0,3.09428 2.50619,5.60047 5.60047,5.60047 h 33.60295 c 3.09425,0 5.60048,-2.50619 5.60048,-5.60047 z m -30.80271,-11.20098 5.6845,7.58865 8.31674,-10.38891 11.20099,14.00124 h -33.60295 z m -25.20219,-16.80145 v 39.20342 c 0,3.09425 2.50623,5.60048 5.60048,5.60048 h 39.20342 v -5.60048 H 238.8765 v -39.20342 z"
         inkscape:connector-curvature="0" />
      <path
         id="path4310"
         d="m 357.25,637.5794 h -16 l -4,-4 h -12 c -2.21,0 -3.98,1.79 -3.98,4 l -0.02,24 c 0,2.21 1.79,4 4,4 h 32 c 2.21,0 4,-1.79 4,-4 v -20 c 0,-2.21 -1.79,-4 -4,-4 z m 0,24 h -32 v -20 h 32 z"
         inkscape:connector-curvature="0" />
      <path
         inkscape:connector-curvature="0"
         d="m 357.24999,685.59308 h -16 l -4,-4 h -12 c -2.21,0 -3.98,1.79 -3.98,4 l -0.02,24 c 0,2.21 1.79,4 4,4 h 32 c 2.21,0 4,-1.79 4,-4 v -20 c 0,-2.21 -1.79,-4 -4,-4 z m 0,24 h -32 v -20 h 32 z"
         id="path4312" />
      <path
         inkscape:connector-curvature="0"
         id="path4203"
         d="m 293.281,649.6227 h 12.95363"
         style="fill:none;fill-rule:evenodd;stroke:#000000;stroke-width:4.55900002;stroke-linecap:butt;stroke-linejoin:miter;stroke-miterlimit:4;stroke-dasharray:none;stroke-opacity:1;marker-end:url(#TriangleOutM)" />
      <path
         inkscape:connector-curvature="0"
         id="path4918"
         d="m 261.66051,618.63191 v -17.27805 h 43.02637"
         style="fill:none;fill-rule:evenodd;stroke:#000000;stroke-width:4.55900002;stroke-linecap:butt;stroke-linejoin:miter;stroke-miterlimit:4;stroke-dasharray:none;stroke-opacity:1;marker-end:url(#marker4926)" />
      <path
         inkscape:connector-curvature="0"
         id="path5032"
         d="m 261.76597,680.42328 v 17.34251 h 42.72761"
         style="fill:none;fill-rule:evenodd;stroke:#000000;stroke-width:4.55900002;stroke-linecap:butt;stroke-linejoin:miter;stroke-miterlimit:4;stroke-dasharray:none;stroke-opacity:1;marker-end:url(#marker5602)" />
    </g>
    <text
       xml:space="preserve"
       style="font-style:normal;font-variant:normal;font-weight:500;font-stretch:normal;font-size:37.50000381px;line-height:1;font-family:Roboto;-inkscape-font-specification:'Roboto Medium';letter-spacing:19.38750076px;word-spacing:0px;fill:#000000;fill-opacity:1;stroke:none;stroke-width:0.93750006"
       x="243.04825"
       y="757.03943"
       id="text914"><tspan
         sodipodi:role="line"
         id="tspan912"
         x="243.04825"
         y="757.03943"
         style="font-style:normal;font-variant:normal;font-weight:500;font-stretch:normal;line-height:1;font-family:Roboto;-inkscape-font-specification:'Roboto Medium';stroke-width:0.93750006">Phosor</tspan></text>
  </g>
</svg>
